# This file uses centimeters as units for non-parametric coordinates.

mtllib Pav00.mtl
g default
v 0.536281 0.191187 -1.136022
v 2.155424 0.191187 -1.136022
v 0.536281 0.191187 -2.658121
v 2.155424 0.191187 -2.658121
v 2.242707 0.000001 -1.030431
v 1.345834 0.258399 -0.869653
v 0.252944 0.258399 -1.897071
v 2.438769 0.258399 -1.897071
v 1.345834 0.258399 -2.924487
v 0.321528 -0.001418 -2.768951
v 2.356298 -0.004553 -2.688894
v 0.327826 0.003117 -1.111885
v 1.418307 -0.003392 -0.647129
v 1.456554 0.001436 -3.143151
v 2.708915 -0.000847 -1.898763
v 0.087504 -0.003689 -1.822404
vt 0.149726 0.333463
vt 0.171003 0.333463
vt 0.171003 0.354740
vt 0.149726 0.354740
vt 0.149726 0.333463
vt 0.171003 0.333463
vt 0.171003 0.354740
vt 0.149726 0.354740
vt 0.149726 0.333463
vt 0.171003 0.333463
vt 0.171003 0.354740
vt 0.149726 0.333463
vt 0.171003 0.333463
vt 0.171003 0.354740
vt 0.149726 0.333463
vt 0.171003 0.333463
vt 0.171003 0.354740
vt 0.149726 0.333463
vt 0.171003 0.333463
vt 0.171003 0.354740
vt 0.149726 0.333463
vt 0.171003 0.333463
vt 0.171003 0.354740
vt 0.149726 0.333463
vt 0.171003 0.333463
vt 0.171003 0.354740
vt 0.149726 0.333463
vt 0.171003 0.333463
vt 0.171003 0.354740
vt 0.149726 0.354740
vt 0.149726 0.333463
vt 0.171003 0.333463
vt 0.171003 0.354740
vt 0.149726 0.354740
vt 0.149726 0.333463
vt 0.171003 0.333463
vt 0.171003 0.354740
vt 0.149726 0.354740
vt 0.149726 0.333463
vt 0.171003 0.333463
vt 0.171003 0.354740
vt 0.149726 0.354740
vt 0.149726 0.333463
vt 0.171003 0.333463
vt 0.171003 0.354740
vt 0.149726 0.354740
vt 0.149726 0.333463
vt 0.171003 0.333463
vt 0.171003 0.354740
vt 0.149726 0.354740
vn 0.308848 0.626979 0.715200
vn 0.308848 0.626979 0.715200
vn 0.308848 0.626979 0.715200
vn 0.308848 0.626979 0.715200
vn -0.319626 0.528013 0.786792
vn -0.319626 0.528013 0.786792
vn -0.319626 0.528013 0.786792
vn -0.319626 0.528013 0.786792
vn 0.125560 0.983054 -0.133562
vn -0.031862 0.999492 -0.001069
vn -0.042021 0.998116 0.044699
vn 0.044638 0.998853 0.017331
vn 0.031864 0.999492 0.001069
vn -0.044640 0.998853 -0.017332
vn 0.042024 0.998116 -0.044704
vn -0.125563 0.983053 0.133570
vn -0.267852 0.609097 -0.746496
vn -0.267852 0.609097 -0.746496
vn -0.267852 0.609097 -0.746496
vn -0.267852 0.609097 -0.746496
vn 0.327505 0.618837 -0.713990
vn 0.327505 0.618837 -0.713990
vn 0.327505 0.618837 -0.713990
vn 0.327505 0.618837 -0.713990
vn 0.652176 0.696513 -0.299226
vn 0.652177 0.696513 -0.299226
vn 0.652176 0.696513 -0.299226
vn 0.652176 0.696513 -0.299226
vn 0.694736 0.630964 0.345291
vn 0.694736 0.630964 0.345291
vn 0.694736 0.630964 0.345291
vn 0.694736 0.630964 0.345291
vn -0.707890 0.649077 0.278552
vn -0.707890 0.649077 0.278552
vn -0.707890 0.649077 0.278552
vn -0.707890 0.649077 0.278552
vn -0.733778 0.633133 -0.246397
vn -0.733779 0.633133 -0.246397
vn -0.733778 0.633133 -0.246397
vn -0.733778 0.633133 -0.246397
s off
g SFMC_geo12650 group1 Main_grp
usemtl lambert2SG
f 13/1/1 5/2/2 2/3/3 6/4/4
f 12/5/5 13/6/6 6/7/7 1/8/8
s 1
f 4/9/9 9/10/10 8/11/11
f 8/12/11 9/13/10 2/14/12
f 2/15/12 9/16/10 6/17/13
f 9/18/10 3/19/14 6/20/13
f 3/21/14 7/22/15 6/23/13
f 7/24/15 1/25/16 6/26/13
s off
f 3/27/17 9/28/18 14/29/19 10/30/20
f 9/31/21 4/32/22 11/33/23 14/34/24
f 15/35/25 11/36/26 4/37/27 8/38/28
f 5/39/29 15/40/30 8/41/31 2/42/32
f 16/43/33 12/44/34 1/45/35 7/46/36
f 10/47/37 16/48/38 7/49/39 3/50/40
g default
v -1.060592 0.191187 1.959040
v 1.151425 0.191187 3.766175
v -0.535380 0.258399 3.948739
v -1.216752 0.258399 2.617985
v 0.720541 0.258399 1.352052
v -1.225804 -0.001418 1.868329
v 1.344037 -0.004553 3.969380
v -0.479635 -0.003392 4.130855
v 0.805729 0.001436 1.173092
v -1.344032 -0.003689 2.679093
vt 0.149726 0.333463
vt 0.171003 0.333463
vt 0.171003 0.354740
vt 0.149726 0.333463
vt 0.171003 0.333463
vt 0.171003 0.354740
vt 0.149726 0.333463
vt 0.171003 0.333463
vt 0.171003 0.354740
vt 0.149726 0.333463
vt 0.171003 0.333463
vt 0.171003 0.354740
vt 0.149726 0.354740
vt 0.149726 0.333463
vt 0.171003 0.333463
vt 0.171003 0.354740
vt 0.149726 0.354740
vt 0.149726 0.333463
vt 0.171003 0.333463
vt 0.171003 0.354740
vt 0.149726 0.354740
vt 0.149726 0.333463
vt 0.171003 0.333463
vt 0.171003 0.354740
vt 0.149726 0.354740
vt 0.149726 0.333463
vt 0.171003 0.333463
vt 0.171003 0.354740
vt 0.149726 0.354740
vn 0.042001 0.998911 0.020314
vn 0.018564 0.999819 0.004230
vn 0.023938 0.999646 0.011578
vn -0.009865 0.999837 -0.015096
vn -0.078059 0.989767 -0.119451
vn -0.282808 0.529916 -0.799505
vn -0.282808 0.529916 -0.799505
vn -0.282808 0.529916 -0.799505
vn -0.282808 0.529916 -0.799505
vn 0.846208 0.511239 -0.150222
vn 0.846208 0.511239 -0.150222
vn 0.846208 0.511239 -0.150222
vn 0.846208 0.511239 -0.150222
vn 0.085422 0.668530 0.738763
vn 0.085422 0.668530 0.738763
vn 0.085422 0.668530 0.738763
vn 0.085422 0.668530 0.738763
vn -0.826426 0.326002 0.459067
vn -0.826426 0.326002 0.459067
vn -0.826426 0.326002 0.459067
vn -0.826426 0.326002 0.459067
vn -0.822374 0.540576 -0.177422
vn -0.822374 0.540576 -0.177422
vn -0.822374 0.540576 -0.177422
vn -0.822374 0.540576 -0.177422
s 1
g group1 Main_grp SFMC_geo12613
usemtl lambert2SG
f 18/51/41 21/52/42 19/53/43
f 19/54/43 21/55/42 20/56/44
f 21/57/42 17/58/45 20/59/44
s off
f 17/60/46 21/61/47 25/62/48 22/63/49
f 21/64/50 18/65/51 23/66/52 25/67/53
f 24/68/54 23/69/55 18/70/56 19/71/57
f 19/72/58 20/73/59 26/74/60 24/75/61
f 22/76/62 26/77/63 20/78/64 17/79/65
g default
v -3.695429 0.191187 1.998523
v -1.983884 0.191187 2.216577
v -3.201425 0.258399 3.690197
v -3.744934 0.258399 3.017841
v -2.162624 0.258399 3.469764
v -2.904084 0.258399 1.949020
v -3.860656 -0.001418 1.907816
v -1.829335 -0.004553 2.191389
v -3.145688 -0.003392 3.872314
v -2.818896 0.001436 1.770060
v -1.977687 -0.000847 3.628791
v -3.872221 -0.003689 3.078947
vt 0.269991 0.335691
vt 0.291267 0.335691
vt 0.291267 0.356967
vt 0.269991 0.356967
vt 0.269991 0.335691
vt 0.291267 0.335691
vt 0.291267 0.356967
vt 0.269991 0.335691
vt 0.291267 0.335691
vt 0.291267 0.356967
vt 0.269991 0.335691
vt 0.291267 0.335691
vt 0.291267 0.356967
vt 0.269991 0.335691
vt 0.291267 0.335691
vt 0.291267 0.356967
vt 0.269991 0.335691
vt 0.291267 0.335691
vt 0.291267 0.356967
vt 0.269991 0.356967
vt 0.269991 0.335691
vt 0.291267 0.335691
vt 0.291267 0.356967
vt 0.269991 0.356967
vt 0.269991 0.335691
vt 0.291267 0.335691
vt 0.291267 0.356967
vt 0.269991 0.356967
vt 0.269991 0.335691
vt 0.291267 0.335691
vt 0.291267 0.356967
vt 0.269991 0.356967
vt 0.269991 0.335691
vt 0.291267 0.335691
vt 0.291267 0.356967
vt 0.269991 0.356967
vn 0.165085 0.592498 0.788476
vn 0.165085 0.592498 0.788476
vn 0.165085 0.592498 0.788476
vn 0.165085 0.592498 0.788476
vn -0.011717 0.998406 -0.055216
vn 0.048248 0.998819 -0.005693
vn 0.018953 0.999729 -0.013505
vn 0.029670 0.999547 -0.005032
vn -0.017443 0.999754 -0.013724
vn -0.088758 0.993603 -0.069824
vn -0.106323 0.525331 -0.844229
vn -0.106323 0.525331 -0.844229
vn -0.106323 0.525331 -0.844229
vn -0.106323 0.525331 -0.844229
vn 0.307127 0.521598 -0.795995
vn 0.307127 0.521598 -0.795995
vn 0.307127 0.521598 -0.795995
vn 0.307127 0.521598 -0.795995
vn 0.787582 0.611041 0.079638
vn 0.787582 0.611041 0.079638
vn 0.787582 0.611041 0.079638
vn 0.787582 0.611041 0.079638
vn -0.699984 0.377143 0.606453
vn -0.699984 0.377143 0.606453
vn -0.699984 0.377143 0.606453
vn -0.699984 0.377143 0.606453
vn -0.839179 0.542420 -0.039479
vn -0.839179 0.542420 -0.039479
vn -0.839179 0.542420 -0.039479
vn -0.839179 0.542420 -0.039479
s off
g group1 Main_grp SFMC_geo12626
usemtl lambert2SG
f 29/80/66 35/81/67 37/82/68 31/83/69
s 1
f 31/84/70 28/85/71 29/86/72
f 28/87/71 32/88/73 29/89/72
f 29/90/72 32/91/73 30/92/74
f 32/93/73 27/94/75 30/95/74
s off
f 27/96/76 32/97/77 36/98/78 33/99/79
f 32/100/80 28/101/81 34/102/82 36/103/83
f 37/104/84 34/105/85 28/106/86 31/107/87
f 29/108/88 30/109/89 38/110/90 35/111/91
f 33/112/92 38/113/93 30/114/94 27/115/95
g default
v -2.329205 0.191187 -3.585337
v -0.617659 0.191187 -3.367279
v -1.835208 0.258399 -1.893661
v -2.378709 0.258399 -2.566020
v -0.759449 0.258399 -1.904660
v -0.897240 0.258399 -3.992104
v -2.494439 -0.001418 -3.676044
v -0.463111 -0.004553 -3.392469
v -1.779464 -0.003392 -1.711544
v -0.812059 0.001436 -4.171068
v -0.574498 -0.000847 -1.745636
v -2.505997 -0.003689 -2.504911
vt 0.396936 0.332350
vt 0.418213 0.332350
vt 0.418213 0.353626
vt 0.396936 0.353626
vt 0.396936 0.332350
vt 0.418213 0.332350
vt 0.418213 0.353626
vt 0.396936 0.332350
vt 0.418213 0.332350
vt 0.418213 0.353626
vt 0.396936 0.332350
vt 0.418213 0.332350
vt 0.418213 0.353626
vt 0.396936 0.332350
vt 0.418213 0.332350
vt 0.418213 0.353626
vt 0.396936 0.332350
vt 0.418213 0.332350
vt 0.418213 0.353626
vt 0.396936 0.353626
vt 0.396936 0.332350
vt 0.418213 0.332350
vt 0.418213 0.353626
vt 0.396936 0.353626
vt 0.396936 0.332350
vt 0.418213 0.332350
vt 0.418213 0.353626
vt 0.396936 0.353626
vt 0.396936 0.332350
vt 0.418213 0.332350
vt 0.418213 0.353626
vt 0.396936 0.353626
vt 0.396936 0.332350
vt 0.418213 0.332350
vt 0.418213 0.353626
vt 0.396936 0.353626
vn 0.015855 0.552819 0.833151
vn 0.015855 0.552819 0.833151
vn 0.015855 0.552819 0.833151
vn 0.015855 0.552819 0.833151
vn -0.000470 0.998944 -0.045949
vn 0.085855 0.995981 0.025508
vn 0.010388 0.999867 -0.012585
vn 0.030300 0.999539 0.001830
vn -0.018042 0.999662 -0.018742
vn -0.066282 0.995423 -0.068853
vn -0.246773 0.530432 -0.811015
vn -0.246773 0.530432 -0.811015
vn -0.246773 0.530432 -0.811015
vn -0.246773 0.530432 -0.811015
vn 0.771666 0.551501 -0.316825
vn 0.771667 0.551501 -0.316825
vn 0.771667 0.551501 -0.316825
vn 0.771667 0.551501 -0.316825
vn 0.793232 0.606802 0.050746
vn 0.793232 0.606802 0.050746
vn 0.793232 0.606802 0.050746
vn 0.793232 0.606802 0.050746
vn -0.699984 0.377149 0.606450
vn -0.699984 0.377149 0.606450
vn -0.699984 0.377149 0.606450
vn -0.699984 0.377149 0.606450
vn -0.839182 0.542415 -0.039476
vn -0.839182 0.542415 -0.039476
vn -0.839182 0.542415 -0.039476
vn -0.839182 0.542415 -0.039476
s off
g group1 Main_grp SFMC_geo12627
usemtl lambert2SG
f 41/116/96 47/117/97 49/118/98 43/119/99
s 1
f 43/120/100 40/121/101 41/122/102
f 40/123/101 44/124/103 41/125/102
f 41/126/102 44/127/103 42/128/104
f 44/129/103 39/130/105 42/131/104
s off
f 39/132/106 44/133/107 48/134/108 45/135/109
f 44/136/110 40/137/111 46/138/112 48/139/113
f 49/140/114 46/141/115 40/142/116 43/143/117
f 41/144/118 42/145/119 50/146/120 47/147/121
f 45/148/122 50/149/123 42/150/124 39/151/125
g default
v 2.148992 0.191187 -0.335489
v 3.453992 0.191187 0.055042
v 2.236443 0.258399 1.996804
v 1.212473 0.258399 1.065734
v 3.287564 0.258399 1.887248
v 3.149773 0.258399 -0.200196
v 1.983765 -0.001418 -0.426194
v 3.608533 -0.004553 0.029852
v 2.292180 -0.003392 2.178922
v 3.234954 0.001436 -0.379160
v 3.472507 -0.000847 2.046273
v 1.085193 -0.003689 1.126842
vt 0.149726 0.333463
vt 0.171003 0.333463
vt 0.171003 0.354740
vt 0.149726 0.354740
vt 0.149726 0.333463
vt 0.171003 0.333463
vt 0.171003 0.354740
vt 0.149726 0.333463
vt 0.171003 0.333463
vt 0.171003 0.354740
vt 0.149726 0.333463
vt 0.171003 0.333463
vt 0.171003 0.354740
vt 0.149726 0.333463
vt 0.171003 0.333463
vt 0.171003 0.354740
vt 0.149726 0.333463
vt 0.171003 0.333463
vt 0.171003 0.354740
vt 0.149726 0.354740
vt 0.149726 0.333463
vt 0.171003 0.333463
vt 0.171003 0.354740
vt 0.149726 0.354740
vt 0.149726 0.333463
vt 0.171003 0.333463
vt 0.171003 0.354740
vt 0.149726 0.354740
vt 0.149726 0.333463
vt 0.171003 0.333463
vt 0.171003 0.354740
vt 0.149726 0.354740
vt 0.149726 0.333463
vt 0.171003 0.333463
vt 0.171003 0.354740
vt 0.149726 0.354740
vn 0.087737 0.573710 0.814346
vn 0.087737 0.573710 0.814346
vn 0.087737 0.573710 0.814346
vn 0.087737 0.573710 0.814346
vn -0.003857 0.999308 -0.037008
vn 0.101453 0.994412 0.029196
vn 0.003204 0.999950 -0.009451
vn 0.030958 0.999514 -0.003700
vn -0.007325 0.999910 -0.011209
vn -0.055362 0.994866 -0.084719
vn 0.053907 0.506572 -0.860511
vn 0.053907 0.506572 -0.860511
vn 0.053907 0.506572 -0.860511
vn 0.053907 0.506572 -0.860511
vn 0.605346 0.570748 -0.554800
vn 0.605346 0.570748 -0.554800
vn 0.605346 0.570748 -0.554800
vn 0.605346 0.570748 -0.554800
vn 0.793157 0.606866 0.051150
vn 0.793157 0.606866 0.051150
vn 0.793157 0.606866 0.051150
vn 0.793157 0.606866 0.051150
vn -0.608654 0.400984 0.684655
vn -0.608654 0.400984 0.684655
vn -0.608654 0.400984 0.684655
vn -0.608654 0.400984 0.684655
vn -0.730564 0.500237 -0.464799
vn -0.730564 0.500237 -0.464799
vn -0.730564 0.500237 -0.464799
vn -0.730564 0.500237 -0.464799
s off
g group1 Main_grp SFMC_geo12623
usemtl lambert2SG
f 53/152/126 59/153/127 61/154/128 55/155/129
s 1
f 55/156/130 52/157/131 53/158/132
f 52/159/131 56/160/133 53/161/132
f 53/162/132 56/163/133 54/164/134
f 56/165/133 51/166/135 54/167/134
s off
f 51/168/136 56/169/137 60/170/138 57/171/139
f 56/172/140 52/173/141 58/174/142 60/175/143
f 61/176/144 58/177/145 52/178/146 55/179/147
f 53/180/148 54/181/149 62/182/150 59/183/151
f 57/184/152 62/185/153 54/186/154 51/187/155
g default
v 0.898201 0.195784 0.318484
v -0.318345 0.256868 0.832514
v -0.836929 0.256868 -0.247484
v 0.434783 0.256868 -0.635820
v 1.130415 -0.003021 0.578695
v -0.376777 -0.001860 1.088286
v 0.481350 0.002968 -0.888432
v -1.130417 -0.002157 -0.221070
vt 0.396936 0.332350
vt 0.418213 0.332350
vt 0.418213 0.353626
vt 0.396936 0.332350
vt 0.418213 0.332350
vt 0.418213 0.353626
vt 0.396936 0.332350
vt 0.418213 0.332350
vt 0.418213 0.353626
vt 0.396936 0.353626
vt 0.396936 0.332350
vt 0.418213 0.332350
vt 0.418213 0.353626
vt 0.396936 0.353626
vt 0.396936 0.332350
vt 0.418213 0.332350
vt 0.418213 0.353626
vt 0.396936 0.353626
vt 0.396936 0.332350
vt 0.418213 0.332350
vt 0.418213 0.353626
vt 0.396936 0.353626
vn 0.063938 0.997415 0.032795
vn 0.032490 0.999333 0.016666
vn 0.025783 0.999580 0.013225
vn 0.000000 1.000000 0.000001
vn 0.799085 0.486198 -0.353660
vn 0.799085 0.486198 -0.353660
vn 0.799085 0.486198 -0.353660
vn 0.799085 0.486198 -0.353660
vn 0.241807 0.765007 0.596903
vn 0.241807 0.765007 0.596903
vn 0.241807 0.765007 0.596903
vn 0.241807 0.765007 0.596903
vn -0.670563 0.650325 0.356964
vn -0.670563 0.650325 0.356964
vn -0.670563 0.650325 0.356964
vn -0.670563 0.650325 0.356964
vn -0.298195 0.501649 -0.812052
vn -0.298195 0.501649 -0.812052
vn -0.298195 0.501649 -0.812052
vn -0.298195 0.501649 -0.812052
s 1
g group1 Main_grp SFMC_geo12622
usemtl lambert2SG
f 63/188/156 66/189/157 64/190/158
f 64/191/158 66/192/157 65/193/159
s off
f 66/194/160 63/195/161 67/196/162 69/197/163
f 68/198/164 67/199/165 63/200/166 64/201/167
f 64/202/168 65/203/169 70/204/170 68/205/171
f 69/206/172 70/207/173 65/208/174 66/209/175
g default
v -3.050044 0.191187 -1.211851
v -1.313853 0.191187 0.176563
v -2.962578 0.258399 1.120437
v -3.986548 0.258399 0.189373
v -2.049256 0.258399 -1.076559
v -3.215257 -0.001418 -1.302557
v -1.159297 -0.004553 0.151371
v -2.906841 -0.003392 1.302557
v -1.964068 0.001436 -1.255523
v -4.113828 -0.003689 0.250481
vt 0.267763 0.330123
vt 0.289040 0.330123
vt 0.289040 0.351399
vt 0.267763 0.330123
vt 0.289040 0.330123
vt 0.289040 0.351399
vt 0.267763 0.330123
vt 0.289040 0.330123
vt 0.289040 0.351399
vt 0.267763 0.330123
vt 0.289040 0.330123
vt 0.289040 0.351399
vt 0.267763 0.351399
vt 0.267763 0.330123
vt 0.289040 0.330123
vt 0.289040 0.351399
vt 0.267763 0.351399
vt 0.267763 0.330123
vt 0.289040 0.330123
vt 0.289040 0.351399
vt 0.267763 0.351399
vt 0.267763 0.330123
vt 0.289040 0.330123
vt 0.289040 0.351399
vt 0.267763 0.351399
vt 0.267763 0.330123
vt 0.289040 0.330123
vt 0.289040 0.351399
vt 0.267763 0.351399
vn 0.053410 0.998326 0.022204
vn 0.013767 0.999883 -0.006609
vn 0.017282 0.999825 0.007185
vn -0.007325 0.999910 -0.011208
vn -0.055362 0.994866 -0.084719
vn 0.053907 0.506575 -0.860509
vn 0.053907 0.506575 -0.860509
vn 0.053907 0.506575 -0.860509
vn 0.053907 0.506575 -0.860509
vn 0.721536 0.563530 -0.402268
vn 0.721536 0.563530 -0.402268
vn 0.721536 0.563530 -0.402268
vn 0.721537 0.563530 -0.402268
vn 0.469759 0.471841 0.746118
vn 0.469759 0.471841 0.746118
vn 0.469759 0.471841 0.746118
vn 0.469759 0.471841 0.746118
vn -0.608644 0.401012 0.684647
vn -0.608644 0.401012 0.684647
vn -0.608644 0.401012 0.684647
vn -0.608644 0.401012 0.684647
vn -0.730575 0.500217 -0.464804
vn -0.730575 0.500217 -0.464804
vn -0.730575 0.500217 -0.464804
vn -0.730575 0.500217 -0.464804
s 1
g group1 Main_grp SFMC_geo12625
usemtl lambert2SG
f 72/210/176 75/211/177 73/212/178
f 73/213/178 75/214/177 74/215/179
f 75/216/177 71/217/180 74/218/179
s off
f 71/219/181 75/220/182 79/221/183 76/222/184
f 75/223/185 72/224/186 77/225/187 79/226/188
f 78/227/189 77/228/190 72/229/191 73/230/192
f 73/231/193 74/232/194 80/233/195 78/234/196
f 76/235/197 80/236/198 74/237/199 71/238/200
