# This file uses centimeters as units for non-parametric coordinates.

mtllib planks02.mtl
g default
v 0.313380 0.066807 0.627437
v 0.313200 0.119691 0.628008
v -0.267561 0.109461 -0.893145
v -0.267385 0.056575 -0.893708
v 0.497292 0.069180 0.533547
v 0.497109 0.122063 0.534119
v -0.066010 0.111750 -0.976509
v -0.065830 0.058869 -0.977065
v -0.209976 0.008388 1.567383
v -0.209976 0.064007 1.567280
v -0.204093 0.055619 -1.769355
v -0.204093 0.000000 -1.769260
v 0.074508 0.008336 1.546633
v 0.074508 0.063955 1.546538
v 0.093501 0.055610 -1.772930
v 0.093501 -0.000009 -1.772834
v -0.224085 0.008354 1.557297
v -0.224198 0.066086 1.557187
v -0.279174 0.058424 -1.506995
v -0.279064 0.000693 -1.506877
v -0.429984 0.007899 1.541528
v -0.430092 0.065630 1.541418
v -0.497292 0.057985 -1.506240
v -0.497183 0.000254 -1.506123
v -0.085265 0.065589 1.706045
v -0.085265 0.120812 1.707495
v -0.094274 0.193930 -1.605381
v -0.094274 0.138705 -1.606831
v -0.367888 0.066375 1.685713
v -0.367888 0.121599 1.687170
v -0.389905 0.194054 -1.608647
v -0.389905 0.138831 -1.610098
v 0.170293 0.056825 1.770256
v 0.170255 0.109614 1.772930
v -0.329216 0.287374 -1.355947
v -0.329180 0.234584 -1.358628
v 0.370309 0.060849 1.719023
v 0.370271 0.113638 1.721697
v -0.114294 0.290362 -1.393081
v -0.114258 0.237573 -1.395762
vt 0.107239 0.705045
vt 0.107239 0.705045
vt 0.107239 0.735851
vt 0.107239 0.735851
vt 0.076433 0.705045
vt 0.076433 0.735851
vt 0.076433 0.705045
vt 0.076433 0.705045
vt 0.107239 0.705045
vt 0.076433 0.735851
vt 0.107239 0.735851
vt 0.107239 0.735851
vt 0.076433 0.735851
vt 0.076433 0.705045
vt 0.107239 0.705045
vt 0.107716 0.515212
vt 0.107716 0.515212
vt 0.107716 0.515212
vt 0.076910 0.515212
vt 0.076910 0.515212
vt 0.107716 0.546018
vt 0.076910 0.546018
vt 0.076910 0.515212
vt 0.076910 0.515212
vt 0.107716 0.546018
vt 0.076910 0.546018
vt 0.107716 0.515212
vt 0.076910 0.546018
vt 0.107716 0.546018
vt 0.107716 0.546018
vt 0.076910 0.546018
vt 0.076910 0.546018
vt 0.107716 0.546018
vt 0.076910 0.546018
vt 0.107716 0.546018
vt 0.107716 0.515212
vt 0.107716 0.515212
vt 0.076910 0.546018
vt 0.076910 0.515212
vt 0.107716 0.546018
vt 0.107716 0.515212
vt 0.076910 0.515212
vt 0.107716 0.515212
vt 0.011088 0.546018
vt 0.011088 0.546018
vt 0.011088 0.546018
vt 0.011088 0.515212
vt 0.011088 0.546018
vt 0.041894 0.546018
vt 0.041894 0.515212
vt 0.011088 0.515212
vt 0.011088 0.546018
vt 0.041894 0.546018
vt 0.011088 0.515212
vt 0.041894 0.546018
vt 0.041894 0.515212
vt 0.041894 0.515212
vt 0.041894 0.515212
vt 0.041894 0.515212
vt 0.041894 0.515212
vt 0.011088 0.515212
vt 0.011088 0.515212
vt 0.041894 0.546018
vt 0.011088 0.546018
vt 0.011088 0.515212
vt 0.011088 0.515212
vt 0.041894 0.546018
vt 0.011088 0.546018
vt 0.041894 0.515212
vt 0.011088 0.546018
vt 0.041894 0.546018
vt 0.076433 0.735851
vt 0.076433 0.705045
vt 0.107239 0.705045
vt 0.107239 0.735851
vt 0.076433 0.735851
vt 0.107239 0.705045
vt 0.107239 0.735851
vt 0.076433 0.705045
vt 0.076433 0.735851
vt 0.107716 0.546018
vt 0.076910 0.546018
vt 0.076910 0.515212
vt 0.107716 0.515212
vt 0.107716 0.546018
vt 0.076910 0.546018
vt 0.107716 0.515212
vt 0.107716 0.546018
vt 0.076910 0.515212
vt 0.076910 0.546018
vt 0.076910 0.515212
vt 0.107716 0.515212
vt 0.107716 0.546018
vt 0.076910 0.546018
vt 0.076910 0.515212
vt 0.076910 0.546018
vt 0.107716 0.515212
vt 0.107716 0.546018
vt 0.076910 0.515212
vt 0.076910 0.515212
vt 0.011088 0.515212
vt 0.041894 0.515212
vt 0.041894 0.546018
vt 0.011088 0.546018
vt 0.041894 0.515212
vt 0.041894 0.546018
vt 0.041894 0.515212
vt 0.041894 0.546018
vt 0.011088 0.515212
vt 0.011088 0.515212
vt 0.041894 0.546018
vt 0.011088 0.546018
vt 0.011088 0.515212
vt 0.041894 0.515212
vt 0.041894 0.546018
vt 0.011088 0.546018
vt 0.041894 0.515212
vt 0.041894 0.546018
vt 0.011088 0.515212
vt 0.011088 0.546018
vn -0.012958 0.999914 -0.001886
vn -0.012958 0.999914 -0.001886
vn -0.012958 0.999914 -0.001886
vn -0.012958 0.999914 -0.001886
vn 0.012972 -0.999914 0.001881
vn 0.012972 -0.999914 0.001881
vn 0.012972 -0.999914 0.001881
vn 0.012972 -0.999914 0.001881
vn 0.454757 -0.008062 0.890579
vn 0.454757 -0.008062 0.890579
vn 0.454757 -0.008062 0.890579
vn 0.454757 -0.008062 0.890579
vn -0.934188 -0.006966 0.356713
vn -0.934188 -0.006966 0.356713
vn -0.934188 -0.006966 0.356713
vn -0.934188 -0.006966 0.356713
vn -0.382261 0.008506 -0.924015
vn -0.382261 0.008506 -0.924015
vn -0.382261 0.008506 -0.924015
vn -0.382261 0.008506 -0.924015
vn 0.936975 0.006938 -0.349328
vn 0.936975 0.006938 -0.349328
vn 0.936975 0.006938 -0.349328
vn 0.936975 0.006938 -0.349328
vn 0.000000 0.999997 -0.002514
vn 0.000000 0.999997 -0.002514
vn 0.000000 0.999997 -0.002514
vn 0.000000 0.999997 -0.002514
vn -0.000000 -0.999997 0.002514
vn -0.000000 -0.999997 0.002514
vn -0.000000 -0.999997 0.002514
vn -0.000000 -0.999997 0.002514
vn 0.072731 0.001773 0.997350
vn 0.072731 0.001773 0.997350
vn 0.072731 0.001773 0.997350
vn 0.072731 0.001773 0.997350
vn -0.999999 -0.000003 -0.001763
vn -0.999999 -0.000003 -0.001763
vn -0.999999 -0.000003 -0.001763
vn -0.999999 -0.000003 -0.001763
vn -0.012009 -0.001712 -0.999926
vn -0.012009 -0.001712 -0.999926
vn -0.012009 -0.001712 -0.999926
vn -0.012009 -0.001712 -0.999926
vn 0.999984 0.000010 0.005721
vn 0.999984 0.000010 0.005721
vn 0.999984 0.000010 0.005721
vn 0.999984 0.000010 0.005721
vn 0.002022 -0.999995 0.002464
vn 0.002022 -0.999995 0.002464
vn 0.002022 -0.999995 0.002464
vn 0.002022 -0.999995 0.002464
vn -0.002022 0.999995 -0.002464
vn -0.002022 0.999995 -0.002464
vn -0.002022 0.999995 -0.002464
vn -0.002022 0.999995 -0.002464
vn -0.076367 0.001752 0.997078
vn -0.076367 0.001752 0.997078
vn -0.076367 0.001752 0.997078
vn -0.076367 0.001752 0.997078
vn 0.999837 0.001891 -0.017944
vn 0.999837 0.001891 -0.017944
vn 0.999837 0.001891 -0.017944
vn 0.999837 0.001891 -0.017944
vn -0.003454 -0.002036 -0.999992
vn -0.003454 -0.002036 -0.999992
vn -0.003454 -0.002036 -0.999992
vn -0.003454 -0.002036 -0.999992
vn -0.999755 -0.001843 0.022049
vn -0.999755 -0.001843 0.022049
vn -0.999755 -0.001843 0.022049
vn -0.999755 -0.001843 0.022049
vn -0.000678 -0.999757 -0.022019
vn -0.000678 -0.999757 -0.022019
vn -0.000678 -0.999757 -0.022019
vn -0.000678 -0.999757 -0.022019
vn 0.000677 0.999757 0.022019
vn 0.000677 0.999757 0.022019
vn 0.000677 0.999757 0.022019
vn 0.000677 0.999757 0.022019
vn -0.071790 -0.026250 0.997074
vn -0.071790 -0.026250 0.997074
vn -0.071790 -0.026250 0.997074
vn -0.071790 -0.026250 0.997074
vn 0.999996 0.000071 -0.002718
vn 0.999996 0.000071 -0.002718
vn 0.999996 0.000071 -0.002718
vn 0.999996 0.000071 -0.002718
vn 0.011056 0.026250 -0.999594
vn 0.011056 0.026250 -0.999594
vn 0.011056 0.026250 -0.999594
vn 0.011056 0.026250 -0.999594
vn -0.999978 -0.000176 0.006676
vn -0.999978 -0.000176 0.006676
vn -0.999978 -0.000176 0.006676
vn -0.999978 -0.000176 0.006676
vn -0.004644 0.998340 0.057413
vn -0.004644 0.998340 0.057413
vn -0.004644 0.998340 0.057413
vn -0.004644 0.998340 0.057413
vn 0.004646 -0.998340 -0.057413
vn 0.004646 -0.998340 -0.057413
vn 0.004646 -0.998340 -0.057413
vn 0.004646 -0.998340 -0.057413
vn 0.248758 -0.048811 0.967335
vn 0.248758 -0.048811 0.967335
vn 0.248758 -0.048811 0.967335
vn 0.248758 -0.048811 0.967335
vn -0.987537 -0.008663 0.157151
vn -0.987537 -0.008663 0.157151
vn -0.987537 -0.008663 0.157151
vn -0.987537 -0.008663 0.157151
vn -0.170717 0.049852 -0.984058
vn -0.170717 0.049852 -0.984058
vn -0.170717 0.049852 -0.984058
vn -0.170717 0.049852 -0.984058
vn 0.988152 0.008465 -0.153246
vn 0.988152 0.008465 -0.153246
vn 0.988152 0.008465 -0.153246
vn 0.988152 0.008465 -0.153246
s off
g SFMC_geo12431 Main_grp
usemtl lambert2SG
f 3/8/1 2/1/2 6/4/3 7/72/4
f 5/73/5 1/74/6 4/75/7 8/76/8
f 2/14/9 1/77/10 5/78/11 6/13/12
f 4/79/13 1/2/14 2/12/15 3/10/16
f 4/5/17 3/15/18 7/11/19 8/80/20
f 7/7/21 6/9/22 5/3/23 8/6/24
f 11/23/25 10/16/26 14/81/27 15/82/28
f 13/83/29 9/84/30 12/85/31 16/86/32
f 10/24/33 9/87/34 13/88/35 14/26/36
f 12/89/37 9/17/38 10/25/39 11/28/40
f 12/20/41 11/27/42 15/29/43 16/90/44
f 14/19/45 13/18/46 16/21/47 15/22/48
f 21/91/49 24/92/50 20/93/51 17/94/52
f 19/95/53 23/36/54 22/33/55 18/96/56
f 22/39/57 21/97/58 17/98/59 18/38/60
f 20/99/61 19/37/62 18/30/63 17/31/64
f 24/100/65 23/41/66 19/40/67 20/34/68
f 22/42/69 23/43/70 24/35/71 21/32/72
f 29/101/73 32/102/74 28/103/75 25/104/76
f 27/51/77 31/105/78 30/106/79 26/44/80
f 30/54/81 29/107/82 25/108/83 26/52/84
f 28/109/85 27/56/86 26/53/87 25/45/88
f 32/110/89 31/57/90 27/55/91 28/48/92
f 30/47/93 31/50/94 32/49/95 29/46/96
f 35/65/97 34/58/98 38/111/99 39/112/100
f 37/113/101 33/114/102 36/115/103 40/116/104
f 34/66/105 33/117/106 37/118/107 38/68/108
f 36/119/109 33/59/110 34/67/111 35/70/112
f 36/62/113 35/69/114 39/71/115 40/120/116
f 38/61/117 37/60/118 40/63/119 39/64/120
