# This file uses centimeters as units for non-parametric coordinates.

mtllib rock04.mtl
g default
v -0.549126 -0.055742 0.750066
v 0.653020 -0.053813 0.887651
v 0.514387 0.729192 0.750066
v -0.427724 0.729192 -0.613162
v 0.384240 0.729788 -0.764338
v -0.431253 -0.055742 -0.613162
v 0.492262 -0.071074 -0.964683
v 0.858596 -0.055742 -0.000000
v 0.710539 0.729192 -0.000000
v -0.589520 0.729192 0.255139
v -0.709126 -0.055742 0.255139
v -0.585676 0.279222 0.785088
v -0.514177 0.329936 -0.654224
v 0.480983 0.387623 -0.941748
v 0.860433 0.312782 0.005475
v 0.564403 0.312782 0.762564
v -0.368321 0.727946 0.566432
v -0.414477 0.592207 0.753148
vt 0.113621 0.371967
vt 0.113621 0.371967
vt 0.073804 0.332150
vt 0.113621 0.371967
vt 0.113621 0.371967
vt 0.073804 0.332150
vt 0.073804 0.371967
vt 0.073804 0.371967
vt 0.073804 0.332150
vt 0.073804 0.332150
vt 0.073804 0.332150
vt 0.113621 0.371967
vt 0.113621 0.371967
vt 0.073804 0.371967
vt 0.073804 0.371967
vt 0.073804 0.332150
vt 0.113621 0.371967
vt 0.073804 0.332150
vt 0.073804 0.332150
vt 0.073804 0.332150
vt 0.073804 0.371967
vt 0.073804 0.371967
vt 0.113621 0.371967
vt 0.073804 0.371967
vt 0.113621 0.371967
vt 0.113621 0.371967
vt 0.113621 0.332150
vt 0.113621 0.371967
vt 0.073804 0.371967
vt 0.073804 0.332150
vt 0.113621 0.371967
vt 0.073804 0.371967
vt 0.073804 0.332150
vt 0.113621 0.371967
vt 0.073804 0.371967
vt 0.073804 0.332150
vt 0.113621 0.371967
vt 0.073804 0.371967
vt 0.073804 0.332150
vt 0.113621 0.371967
vt 0.073804 0.371967
vt 0.073804 0.332150
vt 0.113621 0.371967
vt 0.073804 0.371967
vt 0.073804 0.332150
vt 0.073804 0.371967
vt 0.073804 0.332150
vt 0.113621 0.371967
vt 0.073804 0.371967
vt 0.073804 0.371967
vt 0.073804 0.332150
vt 0.113621 0.371967
vt 0.073804 0.332150
vt 0.073804 0.371967
vt 0.073804 0.332150
vt 0.113621 0.371967
vt 0.073804 0.371967
vt 0.073804 0.332150
vt 0.113621 0.371967
vt 0.073804 0.371967
vt 0.073804 0.332150
vt 0.073804 0.371967
vt 0.073804 0.332150
vt 0.113621 0.371967
vt 0.073804 0.371967
vt 0.073804 0.332150
vt 0.113621 0.371967
vt 0.073804 0.371967
vt 0.073804 0.332150
vt 0.113621 0.371967
vt 0.073804 0.332150
vt 0.073804 0.371967
vt 0.113621 0.371967
vt 0.113621 0.332150
vt 0.113621 0.371967
vt 0.073804 0.371967
vt 0.113621 0.371967
vt 0.073804 0.371967
vt 0.073804 0.371967
vt 0.073804 0.332150
vn -0.109036 0.297295 0.948539
vn -0.034251 0.137589 0.989897
vn -0.007506 -0.011230 0.999909
vn 0.013854 -0.009065 0.999863
vn -0.000305 1.000000 0.000658
vn -0.000099 1.000000 0.000221
vn 0.000083 1.000000 0.000421
vn -0.257518 0.145779 -0.955214
vn -0.295212 -0.001224 -0.955431
vn -0.310132 0.023069 -0.950413
vn -0.352842 -0.173749 -0.919409
vn 0.930064 0.298100 0.214750
vn 0.942874 0.087574 0.321433
vn 0.939452 0.216378 0.265727
vn 0.918383 0.166196 0.359097
vn -0.942836 -0.134748 0.304800
vn -0.942836 -0.134748 0.304800
vn -0.942836 -0.134748 0.304800
vn -0.980885 0.093697 -0.170543
vn -0.977183 0.060724 -0.203533
vn -0.926700 -0.230822 -0.296561
vn 0.934859 0.000614 -0.355018
vn 0.929931 0.033592 -0.366196
vn 0.923004 0.159888 -0.349999
vn 0.914157 0.176006 -0.365157
vn -0.000087 1.000000 0.000502
vn -0.000760 1.000000 -0.000142
vn -0.118594 0.816853 0.564523
vn -0.118594 0.816853 0.564523
vn -0.118594 0.816853 0.564523
vn -0.166719 0.416299 -0.893812
vn -0.264652 0.202855 -0.942767
vn 0.881020 0.333366 -0.335664
vn 0.834549 0.420513 -0.355944
vn 0.908729 0.267631 0.320290
vn 0.960136 0.122860 0.251087
vn -0.002634 0.999979 0.005874
vn 0.007406 0.059585 0.998196
vn 0.007406 0.059585 0.998196
vn -0.903812 0.427397 -0.021334
vn -0.903812 0.427397 -0.021334
vn -0.903812 0.427397 -0.021334
vn -0.903812 0.427397 -0.021334
vn -0.975321 0.160731 -0.151376
vn -0.957706 0.225730 -0.178455
vn -0.808714 0.123230 0.575149
vn -0.808714 0.123229 0.575149
vn -0.808714 0.123229 0.575149
s 1
g SFMC_geo12442 Main_grp
usemtl lambert2SG
f 2/28/1 16/29/2 1/30/3
f 1/31/3 16/32/2 12/33/4
s 2
f 10/34/5 3/35/6 9/36/7
s 3
f 14/37/8 7/38/9 13/39/10
f 13/40/10 7/7/9 6/6/11
s 4
f 2/2/12 8/41/13 16/42/14
f 16/43/14 8/44/13 15/45/15
s off
f 1/1/16 12/46/17 11/47/18
s 5
f 11/48/19 13/49/20 6/10/21
s 6
f 8/12/22 7/50/23 15/51/24
f 15/52/24 7/8/23 14/53/25
s 2
f 9/13/7 5/54/26 10/55/5
f 10/56/5 5/57/26 4/58/27
s off
f 3/59/28 17/60/29 18/61/30
s 3
f 5/5/31 14/62/8 4/63/32
f 4/4/32 14/21/8 13/20/10
s 6
f 15/64/24 14/65/25 9/66/33
f 9/67/33 14/22/25 5/9/34
s 4
f 15/23/15 9/68/35 16/69/14
f 16/70/14 9/14/35 3/71/36
s 2
f 17/26/37 3/72/6 10/16/5
s 1
f 12/73/4 16/24/2 3/3/38 18/74/39
s off
f 17/75/40 11/76/41 12/18/42 18/27/43
s 5
f 13/77/20 10/78/44 4/11/45
s off
f 17/25/46 10/79/47 11/80/48
s 5
f 11/17/19 10/15/44 13/19/20
