# This file uses centimeters as units for non-parametric coordinates.

mtllib rock02.mtl
g default
v -1.147383 1.666208 -0.752842
v 0.883704 -0.000505 1.176812
v -2.004470 0.410911 -1.575806
v 1.578492 1.432412 1.409282
v -1.115015 1.606555 -1.135942
v -1.429929 -0.001033 -0.992812
v -0.833622 -0.001002 -1.577783
v -0.270619 1.611231 -1.014111
v -1.348874 0.668716 -2.052041
v -1.186985 0.771141 -1.914756
v 1.605868 -0.000701 0.554604
v -0.342499 1.467231 -1.368311
v -0.326351 -0.001049 -1.566782
v 1.924874 1.917145 1.240356
v 0.252620 0.137814 -1.500483
v 2.117520 0.681061 0.576929
v 0.663069 -0.001161 -0.927920
v 2.038030 0.175882 1.070684
v 1.660380 1.199084 0.196816
v -0.683828 0.792484 -2.034111
v -0.540547 2.390101 0.969478
v 1.007919 0.896283 -0.427661
v 1.437422 0.339201 -0.744258
v -1.605699 1.059615 0.470435
v 0.123367 0.790743 -1.803691
v 0.504318 0.380349 -1.581914
v -1.727646 0.921015 -0.737812
v 0.355823 0.673914 -1.707173
v -1.617253 1.373108 -0.569780
v 1.195986 1.899146 1.696670
v -1.610299 1.182074 -1.513843
v -0.205900 -0.000756 1.537529
v -1.495107 -0.001307 -0.104312
v -2.117520 0.895274 -0.687612
v -0.064574 0.918080 1.778350
v 0.637247 2.659003 1.208262
v -1.088489 -0.001392 0.612422
v -0.243113 1.288669 1.933198
v 1.698972 2.120969 1.115376
v 1.156945 0.464390 2.052041
v 1.586385 1.929265 0.892397
v -1.321452 0.805593 1.183257
v 1.254315 2.445095 0.054302
v 1.306851 1.867623 -0.099873
v 0.212146 2.019992 -0.871011
v 0.366112 1.547065 -0.866382
v -1.767427 0.418440 0.487734
v 1.732709 1.889002 0.048545
v 1.177469 1.845165 -0.612041
v 1.863616 0.779641 1.742402
vt 0.008380 0.694102
vt 0.008380 0.694102
vt 0.051298 0.694102
vt 0.008380 0.694102
vt 0.051298 0.694102
vt 0.051298 0.694102
vt 0.008380 0.694102
vt 0.008380 0.694102
vt 0.051298 0.737020
vt 0.051298 0.737020
vt 0.008380 0.694102
vt 0.008380 0.694102
vt 0.008380 0.694102
vt 0.008380 0.694102
vt 0.051298 0.737020
vt 0.051298 0.694102
vt 0.051298 0.694102
vt 0.051298 0.737020
vt 0.051298 0.737020
vt 0.008380 0.694102
vt 0.008380 0.694102
vt 0.008380 0.694102
vt 0.008380 0.694102
vt 0.051298 0.737020
vt 0.008380 0.694102
vt 0.051298 0.737020
vt 0.008380 0.694102
vt 0.051298 0.694102
vt 0.051298 0.694102
vt 0.051298 0.694102
vt 0.008380 0.694102
vt 0.008380 0.694102
vt 0.051298 0.694102
vt 0.051298 0.737020
vt 0.008380 0.694102
vt 0.051298 0.694102
vt 0.051298 0.694102
vt 0.051298 0.737020
vt 0.008380 0.694102
vt 0.051298 0.737020
vt 0.051298 0.694102
vt 0.051298 0.737020
vt 0.051298 0.737020
vt 0.051298 0.737020
vt 0.008380 0.694102
vt 0.051298 0.694102
vt 0.008380 0.694102
vt 0.008380 0.694102
vt 0.051298 0.694102
vt 0.051298 0.694102
vt 0.008380 0.694102
vt 0.008380 0.694102
vt 0.008380 0.694102
vt 0.008380 0.694102
vt 0.008380 0.694102
vt 0.051298 0.737020
vt 0.051298 0.694102
vt 0.008380 0.694102
vt 0.008380 0.694102
vt 0.051298 0.694102
vt 0.051298 0.737020
vt 0.008380 0.694102
vt 0.008380 0.694102
vt 0.008380 0.694102
vt 0.051298 0.737020
vt 0.051298 0.694102
vt 0.051298 0.737020
vt 0.051298 0.737020
vt 0.051298 0.737020
vt 0.008380 0.694102
vt 0.008380 0.694102
vt 0.051298 0.694102
vt 0.051298 0.737020
vt 0.008380 0.694102
vt 0.008380 0.694102
vt 0.051298 0.694102
vt 0.008380 0.694102
vt 0.051298 0.694102
vt 0.051298 0.737020
vt 0.008380 0.694102
vt 0.051298 0.694102
vt 0.051298 0.737020
vt 0.051298 0.694102
vt 0.051298 0.737020
vt 0.008380 0.694102
vt 0.051298 0.694102
vt 0.051298 0.737020
vt 0.008380 0.694102
vt 0.051298 0.694102
vt 0.051298 0.737020
vt 0.008380 0.694102
vt 0.051298 0.694102
vt 0.051298 0.737020
vt 0.051298 0.694102
vt 0.008380 0.694102
vt 0.051298 0.694102
vt 0.051298 0.737020
vt 0.008380 0.694102
vt 0.051298 0.694102
vt 0.051298 0.737020
vt 0.008380 0.694102
vt 0.051298 0.694102
vt 0.051298 0.737020
vt 0.008380 0.694102
vt 0.051298 0.737020
vt 0.008380 0.694102
vt 0.051298 0.694102
vt 0.008380 0.737020
vt 0.051298 0.694102
vt 0.051298 0.737020
vt 0.008380 0.694102
vt 0.051298 0.694102
vt 0.051298 0.737020
vt 0.008380 0.694102
vt 0.051298 0.694102
vt 0.051298 0.737020
vt 0.008380 0.694102
vt 0.051298 0.737020
vt 0.008380 0.694102
vt 0.051298 0.737020
vt 0.051298 0.694102
vt 0.051298 0.737020
vt 0.008380 0.694102
vt 0.051298 0.694102
vt 0.051298 0.737020
vt 0.008380 0.694102
vt 0.051298 0.694102
vt 0.051298 0.737020
vt 0.051298 0.694102
vt 0.051298 0.737020
vt 0.008380 0.694102
vt 0.051298 0.694102
vt 0.051298 0.694102
vt 0.008380 0.694102
vt 0.051298 0.694102
vt 0.051298 0.737020
vt 0.008380 0.694102
vt 0.051298 0.694102
vt 0.051298 0.737020
vt 0.008380 0.694102
vt 0.051298 0.694102
vt 0.051298 0.737020
vt 0.051298 0.694102
vt 0.051298 0.737020
vt 0.008380 0.694102
vt 0.051298 0.694102
vt 0.051298 0.737020
vt 0.008380 0.694102
vt 0.051298 0.694102
vt 0.008380 0.694102
vt 0.051298 0.694102
vt 0.008380 0.694102
vt 0.051298 0.737020
vt 0.051298 0.694102
vt 0.051298 0.737020
vt 0.008380 0.694102
vt 0.051298 0.737020
vt 0.008380 0.694102
vt 0.051298 0.694102
vt 0.051298 0.737020
vt 0.008380 0.694102
vt 0.008380 0.694102
vt 0.051298 0.694102
vt 0.051298 0.737020
vt 0.051298 0.694102
vt 0.051298 0.737020
vt 0.008380 0.694102
vt 0.051298 0.694102
vt 0.051298 0.737020
vt 0.008380 0.694102
vt 0.051298 0.694102
vt 0.051298 0.737020
vt 0.008380 0.694102
vt 0.051298 0.694102
vt 0.051298 0.737020
vt 0.008380 0.694102
vt 0.051298 0.694102
vt 0.051298 0.694102
vt 0.051298 0.737020
vt 0.051298 0.694102
vt 0.051298 0.737020
vt 0.051298 0.694102
vt 0.051298 0.737020
vt 0.008380 0.694102
vt 0.051298 0.694102
vt 0.051298 0.737020
vt 0.051298 0.694102
vt 0.051298 0.737020
vt 0.008380 0.694102
vt 0.051298 0.694102
vt 0.051298 0.737020
vt 0.008380 0.694102
vt 0.051298 0.737020
vt 0.008380 0.694102
vt 0.051298 0.694102
vt 0.051298 0.737020
vt 0.008380 0.694102
vt 0.051298 0.694102
vt 0.051298 0.737020
vt 0.008380 0.694102
vt 0.051298 0.694102
vt 0.051298 0.737020
vt 0.051298 0.694102
vt 0.008380 0.694102
vt 0.051298 0.737020
vt 0.008380 0.694102
vt 0.051298 0.694102
vt 0.051298 0.737020
vt 0.008380 0.694102
vt 0.051298 0.694102
vt 0.051298 0.737020
vt 0.051298 0.694102
vt 0.051298 0.737020
vt 0.008380 0.694102
vt 0.051298 0.694102
vt 0.051298 0.737020
vt 0.008380 0.694102
vt 0.051298 0.737020
vt 0.008380 0.694102
vt 0.051298 0.694102
vt 0.051298 0.737020
vt 0.051298 0.694102
vt 0.051298 0.737020
vt 0.008380 0.694102
vt 0.051298 0.694102
vt 0.051298 0.737020
vt 0.008380 0.694102
vt 0.051298 0.694102
vt 0.051298 0.737020
vt 0.008380 0.694102
vt 0.051298 0.737020
vt 0.008380 0.694102
vt 0.051298 0.694102
vt 0.051298 0.737020
vt 0.051298 0.694102
vt 0.051298 0.694102
vt 0.051298 0.737020
vt 0.008380 0.694102
vt 0.051298 0.694102
vt 0.051298 0.737020
vt 0.051298 0.694102
vt 0.051298 0.694102
vt 0.051298 0.737020
vt 0.051298 0.694102
vt 0.051298 0.737020
vt 0.008380 0.694102
vt 0.051298 0.694102
vt 0.051298 0.737020
vt 0.008380 0.694102
vt 0.051298 0.694102
vt 0.051298 0.737020
vt 0.051298 0.694102
vt 0.051298 0.737020
vt 0.008380 0.694102
vt 0.051298 0.737020
vt 0.051298 0.694102
vt 0.051298 0.737020
vt 0.051298 0.694102
vt 0.051298 0.737020
vt 0.051298 0.694102
vt 0.051298 0.737020
vt 0.051298 0.694102
vt 0.051298 0.737020
vt 0.051298 0.694102
vt 0.051298 0.737020
vn -0.100240 0.951594 -0.290553
vn -0.240559 0.926904 -0.288064
vn -0.497030 0.804387 -0.325458
vn -0.454871 0.835444 -0.308424
vn -0.309122 0.812466 -0.494310
vn -0.795050 -0.528319 -0.297951
vn -0.795050 -0.528319 -0.297951
vn -0.795050 -0.528319 -0.297951
vn 0.240691 -0.844115 0.479101
vn 0.158481 -0.902732 0.399949
vn 0.416329 -0.876345 0.242259
vn 0.598689 -0.783242 -0.167639
vn -0.351702 0.906831 -0.232298
vn -0.028395 0.719131 -0.694294
vn -0.300438 0.844756 -0.442859
vn 0.151146 0.742964 -0.652043
vn -0.289003 -0.691311 -0.662243
vn -0.649394 -0.742938 -0.162265
vn -0.139488 -0.725722 -0.673699
vn -0.448407 -0.876100 -0.177147
vn -0.464800 0.826066 -0.318711
vn -0.772818 0.583441 -0.249696
vn -0.006442 0.686210 -0.727375
vn 0.284902 -0.653732 -0.701046
vn 0.176495 -0.460409 -0.869985
vn 0.652265 0.541107 -0.530804
vn 0.902822 0.428846 -0.031669
vn 0.763772 0.514530 -0.389758
vn 0.894378 0.442500 0.065430
vn 0.592894 0.621866 -0.511624
vn 0.580121 0.618927 -0.529519
vn 0.145603 -0.491566 -0.858582
vn 0.348170 0.637523 -0.687271
vn -0.483149 0.818512 0.310815
vn -0.817573 0.439468 0.372079
vn -0.434639 0.535141 0.724371
vn 0.768094 -0.566678 -0.298174
vn 0.524374 -0.791273 -0.314515
vn 0.667443 0.555602 -0.495809
vn 0.438609 -0.792207 -0.424299
vn 0.247378 -0.367380 -0.896569
vn 0.157491 -0.381492 -0.910857
vn 0.388073 -0.661071 -0.642171
vn -0.809531 0.586188 -0.032305
vn 0.668386 0.020844 -0.743522
vn 0.668386 0.020844 -0.743522
vn 0.668386 0.020844 -0.743522
vn -0.265724 0.375363 0.887972
vn -0.176331 0.567538 0.804244
vn 0.530223 -0.084901 0.843597
vn 0.332581 -0.274785 0.902155
vn 0.380580 -0.238280 0.893522
vn -0.199669 -0.268378 0.942394
vn -0.009338 -0.389351 0.921042
vn -0.788428 -0.610003 0.079231
vn 0.142328 -0.891875 0.429303
vn -0.129577 0.902209 -0.411375
vn -0.775319 -0.629805 0.047180
vn -0.680207 -0.661338 0.316149
vn 0.143468 0.984235 -0.103432
vn 0.053847 0.530289 0.846105
vn 0.052821 0.513270 0.856600
vn 0.050254 0.471304 0.880538
vn 0.928227 0.362268 -0.084600
vn 0.929045 0.272272 0.250486
vn 0.033322 0.999373 -0.011937
vn -0.001794 0.999330 0.036553
vn 0.018224 0.999688 0.017092
vn 0.643411 -0.710201 0.285720
vn 0.643411 -0.710201 0.285720
vn 0.643411 -0.710201 0.285720
vn 0.502506 0.814932 0.288743
vn -0.056197 0.948040 0.313148
vn 0.020942 0.991266 -0.130208
vn -0.563012 -0.623916 0.541984
vn -0.517345 -0.468785 0.715958
vn -0.426841 -0.293285 0.855447
vn 0.828647 -0.536645 0.159238
vn 0.897154 -0.248255 -0.365355
vn 0.908849 -0.413584 0.054232
vn 0.890502 -0.194840 -0.411149
vn -0.284904 -0.201780 0.937078
vn -0.667371 0.576426 0.471539
vn -0.079060 0.991247 -0.105728
vn 0.739053 0.227456 -0.634086
vn 0.788844 0.214246 -0.576041
vn 0.933122 0.017180 -0.359148
vn 0.912713 -0.067251 -0.403028
vn 0.498789 0.154038 -0.852925
vn -0.900583 0.236992 0.364397
vn -0.891500 0.235314 0.387110
vn -0.019267 0.998635 -0.048549
vn -0.119176 0.992683 -0.019424
vn -0.358101 0.932366 0.049580
vn -0.329553 0.943207 0.041893
vn 0.593877 -0.246298 -0.765929
vn 0.612761 -0.254846 -0.748049
vn 0.369690 -0.240454 -0.897503
vn 0.059573 0.628322 0.775669
vn 0.529067 -0.558223 0.639120
s 1
g SFMC_geo9 Main_grp
usemtl lambert2SG
f 34/80/1 27/81/2 3/82/3
f 3/52/3 27/83/2 9/84/4
f 9/85/4 27/86/2 10/87/5
s off
f 27/88/6 31/89/7 10/90/8
s 2
f 40/91/9 2/92/10 18/93/11
f 18/12/11 2/94/10 11/15/12
s 1
f 1/95/13 8/96/14 5/97/15
f 5/98/15 8/99/14 12/100/16
s 2
f 7/101/17 6/102/18 9/103/19
f 9/104/19 6/3/18 3/105/20
s 1
f 5/106/15 10/107/5 31/10/21 27/108/22
f 10/20/5 5/109/15 20/110/23
f 5/111/15 12/112/16 20/113/23
s 2
f 15/114/24 13/115/25 9/116/19
f 13/117/25 7/17/17 9/118/19
s 1
f 9/119/4 10/16/5 20/120/23
f 8/13/14 46/121/26 12/122/16
f 16/123/27 19/124/28 4/125/29
f 16/126/27 23/127/30 19/128/28
f 19/32/28 23/129/30 22/130/31
s 2
f 20/131/32 15/132/24 9/9/19
s 1
f 12/23/16 25/133/33 20/19/23
f 21/134/34 24/135/35 38/136/36
s 2
f 18/137/11 11/138/12 16/139/37
f 16/140/37 11/141/12 23/142/38
s 1
f 12/14/16 46/143/26 25/144/33
f 22/145/31 28/146/39 46/147/26
f 46/148/26 28/149/39 25/34/33
s 2
f 15/150/24 17/151/40 13/24/25
f 23/152/38 11/30/12 17/153/40
f 20/25/32 25/154/41 15/155/24
f 15/156/24 25/41/41 28/157/42
f 23/158/38 17/159/40 26/160/43
f 26/161/43 17/37/40 15/38/24
s 1
f 24/162/35 21/163/34 29/164/44
f 22/39/31 23/165/30 28/166/39
s off
f 28/47/45 23/33/46 26/42/47
s 1
f 36/167/48 21/168/34 30/169/49
s 2
f 26/45/43 15/28/24 28/44/42
f 14/170/50 30/171/51 4/172/52
f 4/173/52 30/174/51 35/175/53
f 35/176/53 30/177/51 38/69/54
s 1
f 24/35/35 29/178/44 27/179/22
f 29/53/44 5/5/15 27/43/22
s 2
f 3/4/20 6/180/18 34/181/55
s 1
f 1/7/13 5/6/15 29/56/44
s 2
f 2/11/10 40/182/9 32/183/56
s 1
f 1/184/13 45/185/57 8/186/14
s 2
f 6/54/18 33/187/58 34/188/55
f 34/189/55 33/190/58 47/191/59
s 1
f 1/192/13 29/46/44 21/193/34
f 1/194/13 21/195/34 36/196/60
s 10
f 35/197/61 50/198/62 4/199/63
s 1
f 50/200/64 18/201/65 4/202/29
f 4/8/29 18/203/65 16/18/27
s 11
f 41/204/66 30/49/67 14/205/68
s off
f 30/206/69 41/207/70 39/208/71
s 1
f 30/209/72 39/210/73 43/211/74
s 2
f 33/59/58 37/212/75 47/213/59
f 47/214/59 37/215/75 42/216/76
f 42/217/76 37/66/75 32/218/77
s 1
f 43/219/74 36/220/60 30/221/72
s 13
f 4/2/78 19/222/79 14/223/80
f 14/224/80 19/225/79 48/226/81
s 2
f 42/227/76 32/228/77 35/229/53
f 35/230/53 32/57/77 40/231/82
s 1
f 24/232/35 42/233/83 38/234/36
s 2
f 38/70/54 42/235/76 35/61/53
s 1
f 27/55/2 34/236/1 24/237/84
f 44/238/85 43/239/86 41/240/87
f 41/64/87 43/241/86 39/65/88
f 8/21/14 45/242/57 46/243/89
f 34/51/90 47/244/91 24/245/35
f 24/71/35 47/60/91 42/67/83
f 43/246/86 44/247/85 45/248/57
f 45/249/57 44/72/85 46/73/89
s 11
f 14/27/68 48/250/92 41/251/66
f 41/63/66 48/252/92 44/253/93
f 46/254/94 44/76/93 49/255/95
f 44/75/93 48/256/92 49/257/95
s 13
f 19/31/79 22/258/96 48/259/81
f 48/74/81 22/260/96 49/261/97
f 49/77/97 22/78/96 46/26/98
s 1
f 1/58/13 36/262/60 45/263/57
f 45/22/57 36/50/60 43/68/74
s 10
f 35/62/61 40/264/99 50/265/62
s 2
f 40/1/9 18/29/11 50/79/100
s 1
f 30/48/49 21/36/34 38/40/36
