# This file uses centimeters as units for non-parametric coordinates.

mtllib Tree02.mtl
g default
v -0.699976 0.000000 -0.018823
v 0.183179 0.000000 -0.018823
v -0.426797 1.910608 0.293518
v 0.047021 2.678307 0.293518
v -0.426797 1.910608 -0.444056
v 0.047021 2.678307 -0.444056
v -0.699976 0.000000 -0.901963
v 0.183179 0.000000 -0.901963
v -0.487017 2.743591 0.331831
v 0.047021 3.302596 0.029766
v 0.047021 3.302596 -0.444056
v -0.426797 2.534896 -0.444056
v -0.189888 4.633075 -1.003477
v 1.502534 3.774003 -1.103082
v -1.648975 3.333940 0.327832
v -2.561411 3.991399 1.460255
v -3.490093 4.374005 0.411581
v -3.060132 2.992273 0.532039
v -2.032148 2.753637 -0.465396
v -0.803599 3.702479 0.022375
v -1.808921 4.261263 -1.109473
v -1.595273 5.929075 -0.066394
v -2.356040 5.225645 0.723354
v -1.660342 2.989957 0.918256
v -1.225195 4.370257 1.036494
v -2.410049 5.553775 -1.482517
v -3.162993 3.609025 -0.778535
v -0.959136 7.707991 -1.636648
v 0.342803 7.748040 0.484644
v 1.295801 5.969146 0.275969
v 0.848364 5.112799 -2.304170
v 0.464326 3.996046 -0.928784
v -0.804858 4.593012 -2.828174
v 1.441157 6.645388 -1.932133
v -0.290698 6.554247 -3.211359
v -1.182876 4.421586 2.171294
v 0.638071 4.747241 3.211355
v 1.666157 6.336604 2.251835
v 2.237300 4.326595 1.881218
v -0.447642 6.395315 2.431113
v 1.758032 4.136076 0.079076
v 0.476499 3.143050 1.831443
v 1.258286 3.419083 -2.255486
v 2.209146 3.138325 -0.856370
v 3.490093 4.278338 -0.848694
v 2.804619 5.844711 -0.717971
v 3.330894 5.263659 -2.243064
v 2.962866 3.591021 -2.328596
vt 0.321581 0.009535
vt 0.364963 0.009535
vt 0.364963 0.052917
vt 0.321581 0.009535
vt 0.364963 0.009535
vt 0.364963 0.052917
vt 0.321581 0.009535
vt 0.364963 0.009535
vt 0.364963 0.052917
vt 0.321581 0.009535
vt 0.364963 0.009535
vt 0.364963 0.052917
vt 0.321581 0.009535
vt 0.364963 0.009535
vt 0.364963 0.052917
vt 0.321581 0.009535
vt 0.364963 0.009535
vt 0.364963 0.052917
vt 0.321581 0.009535
vt 0.364963 0.009535
vt 0.364963 0.052917
vt 0.321581 0.009535
vt 0.364963 0.009535
vt 0.364963 0.052917
vt 0.321581 0.009535
vt 0.364963 0.009535
vt 0.364963 0.052917
vt 0.321581 0.009535
vt 0.364963 0.009535
vt 0.364963 0.052917
vt 0.321581 0.009535
vt 0.364963 0.009535
vt 0.364963 0.052917
vt 0.321581 0.009535
vt 0.364963 0.009535
vt 0.364963 0.052917
vt 0.321581 0.009535
vt 0.364963 0.009535
vt 0.364963 0.052917
vt 0.321581 0.009535
vt 0.364963 0.009535
vt 0.364963 0.052917
vt 0.321581 0.009535
vt 0.364963 0.009535
vt 0.364963 0.052917
vt 0.321581 0.009535
vt 0.364963 0.009535
vt 0.364963 0.052917
vt 0.321581 0.009535
vt 0.364963 0.009535
vt 0.364963 0.052917
vt 0.321581 0.009535
vt 0.364963 0.009535
vt 0.364963 0.052917
vt 0.321581 0.009535
vt 0.364963 0.009535
vt 0.364963 0.052917
vt 0.321581 0.009535
vt 0.364963 0.009535
vt 0.364963 0.052917
vt 0.321581 0.009535
vt 0.364963 0.009535
vt 0.364963 0.052917
vt 0.321581 0.009535
vt 0.364963 0.009535
vt 0.364963 0.052917
vt 0.321581 0.009535
vt 0.364963 0.009535
vt 0.364963 0.052917
vt 0.321581 0.009535
vt 0.364963 0.009535
vt 0.364963 0.052917
vt 0.194650 0.574175
vt 0.238032 0.574175
vt 0.238032 0.617557
vt 0.194650 0.574175
vt 0.238032 0.574175
vt 0.238032 0.617557
vt 0.194650 0.574175
vt 0.238032 0.574175
vt 0.238032 0.617557
vt 0.194650 0.574175
vt 0.238032 0.574175
vt 0.238032 0.617557
vt 0.194650 0.574175
vt 0.238032 0.574175
vt 0.238032 0.617557
vt 0.216341 0.595866
vt 0.238032 0.574175
vt 0.238032 0.617557
vt 0.194650 0.574175
vt 0.238032 0.574175
vt 0.238032 0.617557
vt 0.194650 0.574175
vt 0.238032 0.574175
vt 0.238032 0.617557
vt 0.194650 0.574175
vt 0.238032 0.574175
vt 0.238032 0.617557
vt 0.194650 0.574175
vt 0.238032 0.574175
vt 0.238032 0.617557
vt 0.194650 0.574175
vt 0.238032 0.574175
vt 0.238032 0.617557
vt 0.194650 0.574175
vt 0.238032 0.574175
vt 0.194650 0.574175
vt 0.238032 0.574175
vt 0.238032 0.617557
vt 0.194650 0.574175
vt 0.238032 0.574175
vt 0.238032 0.617557
vt 0.194650 0.574175
vt 0.238032 0.574175
vt 0.238032 0.617557
vt 0.194650 0.574175
vt 0.238032 0.574175
vt 0.238032 0.617557
vt 0.194650 0.574175
vt 0.238032 0.574175
vt 0.238032 0.617557
vt 0.194650 0.574175
vt 0.238032 0.574175
vt 0.238032 0.617557
vt 0.194650 0.574175
vt 0.238032 0.574175
vt 0.238032 0.617557
vt 0.194650 0.574175
vt 0.238032 0.574175
vt 0.238032 0.617557
vt 0.194650 0.574175
vt 0.238032 0.574175
vt 0.238032 0.617557
vt 0.194650 0.574175
vt 0.238032 0.574175
vt 0.238032 0.617557
vt 0.194650 0.574175
vt 0.238032 0.574175
vt 0.238032 0.617557
vt 0.194650 0.574175
vt 0.238032 0.574175
vt 0.238032 0.617557
vt 0.194650 0.574175
vt 0.238032 0.574175
vt 0.238032 0.617557
vt 0.194650 0.574175
vt 0.238032 0.574175
vt 0.238032 0.617557
vt 0.194650 0.574175
vt 0.238032 0.574175
vt 0.238032 0.617557
vt 0.194650 0.574175
vt 0.238032 0.574175
vt 0.238032 0.617557
vt 0.216341 0.574175
vt 0.238032 0.574175
vt 0.238032 0.617557
vt 0.194650 0.574175
vt 0.238032 0.574175
vt 0.238032 0.617557
vt 0.194650 0.574175
vt 0.238032 0.574175
vt 0.238032 0.617557
vt 0.194650 0.574175
vt 0.238032 0.574175
vt 0.238032 0.617557
vt 0.194650 0.574175
vt 0.238032 0.574175
vt 0.238032 0.617557
vt 0.194650 0.574175
vt 0.238032 0.574175
vt 0.238032 0.617557
vt 0.238032 0.574175
vt 0.238032 0.617557
vt 0.194650 0.574175
vt 0.238032 0.574175
vt 0.238032 0.617557
vt 0.194650 0.574175
vt 0.238032 0.574175
vt 0.238032 0.617557
vt 0.194650 0.574175
vt 0.238032 0.574175
vt 0.238032 0.617557
vt 0.194650 0.574175
vt 0.238032 0.574175
vt 0.238032 0.617557
vt 0.194650 0.574175
vt 0.238032 0.574175
vt 0.194650 0.574175
vt 0.238032 0.574175
vt 0.238032 0.617557
vt 0.238032 0.574175
vt 0.238032 0.617557
vt 0.238032 0.617557
vt 0.194650 0.574175
vt 0.238032 0.574175
vt 0.238032 0.617557
vt 0.194650 0.574175
vt 0.238032 0.574175
vt 0.238032 0.617557
vt 0.194650 0.574175
vt 0.238032 0.574175
vt 0.238032 0.617557
vt 0.194650 0.574175
vt 0.238032 0.574175
vt 0.238032 0.617557
vt 0.194650 0.574175
vt 0.238032 0.574175
vt 0.238032 0.617557
vt 0.194650 0.574175
vt 0.238032 0.574175
vt 0.238032 0.617557
vt 0.194650 0.574175
vt 0.238032 0.574175
vt 0.238032 0.617557
vt 0.238032 0.574175
vt 0.238032 0.574175
vn 0.000000 -0.161336 0.986900
vn 0.024604 -0.153632 0.987822
vn 0.113838 -0.103952 0.988046
vn 0.265856 0.152591 0.951860
vn -0.239405 0.052428 -0.969503
vn -0.035529 0.222177 -0.974359
vn -0.244714 0.138909 -0.959593
vn 0.000000 0.233065 -0.972461
vn 0.998710 0.050771 0.000000
vn 0.998710 0.050771 0.000000
vn 0.998710 0.050771 0.000000
vn 0.998710 0.050771 0.000000
vn -0.989933 0.141541 0.000000
vn -0.989933 0.141541 0.000000
vn -0.985064 -0.172188 0.000000
vn -0.954042 -0.299674 0.000000
vn -0.022741 0.110659 0.993598
vn 0.174088 0.490493 0.853879
vn -0.272422 -0.046747 -0.961042
vn 0.062257 -0.162464 -0.984748
vn -0.165279 0.586396 0.792983
vn 0.984514 0.175306 0.000000
vn 0.984514 0.175306 0.000000
vn 0.984514 0.175306 0.000000
vn 0.449094 -0.277178 -0.849404
vn -0.991336 0.085302 -0.099886
vn -0.991336 0.085302 -0.099886
vn -0.991336 0.085302 -0.099886
vn 0.601426 -0.798929 0.000000
vn 0.601426 -0.798929 0.000000
vn 0.601426 -0.798929 0.000000
vn -0.412469 0.000000 -0.910972
vn -0.308120 0.951347 0.000000
vn -0.308120 0.951348 0.000000
vn -0.308120 0.951348 0.000000
vn 0.508730 0.335053 0.793053
vn -0.758683 -0.651460 0.000000
vn -0.027790 -0.047933 0.998464
vn 0.444318 0.873173 -0.200377
vn 0.444318 0.873173 -0.200377
vn 0.444318 0.873173 -0.200377
vn -0.533986 0.000000 -0.845493
vn -0.265973 0.001273 0.963980
vn 0.367380 -0.740906 0.562219
vn 0.440372 0.143089 0.886340
vn -0.627097 -0.722198 0.291855
vn 0.176357 -0.842470 -0.509061
vn 0.795801 -0.583327 -0.162577
vn -0.355281 0.766711 0.534725
vn -0.931127 0.335301 0.143443
vn -0.794815 0.595584 0.116399
vn -0.928619 -0.152361 -0.338310
vn -0.055946 -0.356964 -0.932441
vn -0.168122 -0.670115 -0.722967
vn -0.659266 -0.026589 -0.751439
vn 0.348519 0.878286 -0.327336
vn 0.507848 0.854556 -0.108741
vn 0.306903 0.825145 -0.474285
vn 0.695779 0.708207 -0.119723
vn 0.754930 0.637584 0.153515
vn 0.284590 -0.186697 -0.940294
vn 0.480311 -0.162858 -0.861846
vn 0.270846 0.126878 -0.954224
vn -0.246504 -0.553311 -0.795665
vn -0.679982 0.248207 -0.689940
vn -0.684507 0.418313 -0.597047
vn 0.121422 -0.920842 -0.370549
vn -0.713544 0.589442 0.378700
vn -0.761060 0.581313 0.287859
vn -0.697439 0.655065 0.290635
vn -0.508306 0.591374 0.626021
vn -0.779658 -0.261801 0.568853
vn 0.079048 -0.158993 0.984110
vn 0.275941 0.525466 0.804824
vn 0.072300 0.805023 0.588822
vn 0.895212 0.376839 -0.237881
vn -0.213657 -0.782712 0.584562
vn 0.558658 -0.309408 0.769525
vn 0.924174 0.305003 -0.229949
vn -0.428074 -0.843396 0.324707
vn 0.136462 -0.930665 0.339472
vn -0.377423 -0.718444 0.584285
vn 0.868625 -0.178065 0.462368
vn 0.475973 -0.177160 0.861432
vn 0.460097 0.128024 0.878590
vn 0.537993 0.809295 0.235808
vn 0.005307 0.000771 -0.999986
vn 0.001983 0.092694 -0.995693
vn -0.048986 0.061755 -0.996888
vn -0.217125 -0.974959 -0.048082
vn 0.657698 -0.737988 -0.151020
vn 0.905444 0.417590 -0.076094
vn -0.876108 -0.224307 -0.426756
vn -0.876108 -0.224307 -0.426756
vn -0.876108 -0.224307 -0.426756
vn 0.073726 -0.934792 -0.347459
vn 0.096111 -0.979983 -0.174344
vn 0.590808 -0.789408 -0.166674
vn -0.076592 -0.919374 -0.385857
vn -0.936462 -0.347096 0.050623
vn -0.595804 -0.787369 0.158325
vn 0.466864 -0.845321 -0.259750
vn 0.698612 -0.706827 -0.111067
vn 0.698612 -0.706827 -0.111067
vn 0.407616 0.746967 0.525252
vn 0.240662 0.598025 0.764492
s 1
g SFMC_geo12453 Main_grp
usemtl lambert2SG
f 1/1/1 2/2/2 3/3/3
f 3/4/3 2/5/2 4/6/4
s 2
f 6/7/5 8/8/6 5/9/7
f 5/10/7 8/11/6 7/12/8
s 3
f 8/13/9 6/14/10 2/15/11
f 2/16/11 6/17/10 4/18/12
s 4
f 7/19/13 1/20/14 5/21/15
f 5/22/15 1/23/14 3/24/16
s 1
f 3/25/3 4/26/4 9/27/17
f 9/28/17 4/29/4 10/30/18
s 2
f 5/31/7 12/32/19 6/33/5
f 6/34/5 12/35/19 11/36/20
s 1
f 9/37/17 10/38/18 13/39/21
s off
f 10/40/22 11/41/23 13/42/24
s 2
f 12/43/19 13/44/25 11/45/20
s off
f 9/46/26 13/47/27 12/48/28
f 4/49/29 6/50/30 14/51/31
s 2
f 6/52/5 11/53/20 14/54/32
s off
f 10/55/33 14/56/34 11/57/35
s 1
f 4/58/4 14/59/36 10/60/18
s 4
f 5/61/15 3/62/16 15/63/37
s 1
f 3/64/3 9/65/17 15/66/38
s off
f 12/67/39 15/68/40 9/69/41
s 2
f 5/70/7 15/71/42 12/72/19
s 5
f 16/73/43 24/74/44 25/75/45
f 16/76/43 18/77/46 24/78/44
f 18/79/46 19/80/47 24/81/44
f 19/82/47 20/83/48 24/84/44
f 20/85/48 25/86/45 24/87/44
f 23/88/49 16/89/43 25/90/45
f 17/91/50 26/92/51 27/93/52
f 17/94/50 27/95/52 18/96/46
f 27/97/52 19/98/47 18/99/46
f 27/100/53 21/101/54 19/102/47
f 27/103/53 26/104/55 21/105/54
f 26/106/51 17/107/50 23/88/49
f 16/108/43 23/109/49 17/110/50
f 16/111/43 17/112/50 18/113/46
f 19/114/47 21/115/54 20/116/48
s 8
f 28/117/56 34/118/57 35/119/58
f 28/120/56 29/121/59 34/122/57
f 29/123/59 30/124/60 34/125/57
s 5
f 31/126/61 35/127/62 34/128/63
f 33/129/64 35/130/62 31/131/61
f 26/132/55 35/133/65 33/134/64
f 26/135/55 28/136/66 35/137/65
f 21/138/54 33/139/64 32/140/67
f 21/141/54 26/142/55 33/143/64
f 28/144/68 26/145/51 22/146/69
f 28/147/68 22/148/69 29/149/70
f 32/150/67 33/151/64 31/152/61
f 22/153/69 40/154/71 29/155/70
f 22/156/69 36/157/72 40/158/71
f 36/159/72 37/160/73 40/161/71
f 37/162/73 38/163/74 40/164/71
f 38/165/74 29/166/75 40/167/71
s 8
f 30/168/60 29/169/59 38/170/76
s 5
f 42/171/77 37/172/73 36/173/72
f 42/171/77 39/174/78 37/175/73
f 37/176/73 39/177/78 38/178/74
s 8
f 39/179/79 30/180/60 38/181/76
f 32/182/80 44/183/81 41/184/82
f 44/185/81 45/186/83 41/187/84
f 45/188/83 46/189/85 41/184/84
f 34/190/57 30/191/60 46/192/86
s 5
f 43/193/87 47/194/88 48/195/89
s 8
f 43/196/90 48/197/91 44/198/81
f 48/199/91 45/200/83 44/201/81
f 48/202/91 47/203/92 45/204/83
s off
f 32/205/93 31/206/94 43/207/95
s 8
f 32/208/80 43/209/90 44/210/81
f 45/211/83 47/212/92 46/213/86
f 47/214/92 34/215/57 46/216/86
s 14
f 20/116/96 32/182/97 41/184/98
f 20/116/96 21/115/99 32/182/97
s 5
f 26/106/51 23/88/49 22/156/69
f 22/156/69 25/90/100 36/157/72
f 42/171/77 36/173/72 20/116/101
s 14
f 42/171/102 20/116/96 41/184/98
s 5
f 25/86/100 20/116/101 36/157/72
s 14
f 39/174/103 42/171/102 41/184/98 46/189/104
s 8
f 39/174/105 46/192/86 30/180/60
s 5
f 23/88/49 25/90/45 22/156/106
f 31/217/61 47/194/88 43/193/87
f 34/218/63 47/194/88 31/217/61
